<?xml version="1.0" standalone="no"?>
<!DOCTYPE svg PUBLIC "-//W3C//DTD SVG 20010904//EN"
 "http://www.w3.org/TR/2001/REC-SVG-20010904/DTD/svg10.dtd">
<svg version="1.0" xmlns="http://www.w3.org/2000/svg"
 width="500.000000pt" height="500.000000pt" viewBox="0 0 500.000000 500.000000"
 preserveAspectRatio="xMidYMid meet">
<metadata>
Created by potrace 1.14, written by Peter Selinger 2001-2017
</metadata>
<g transform="translate(0.000000,500.000000) scale(0.100000,-0.100000)"
fill="#000000" stroke="none">
<path d="M2460 4777 c-3 -3 -25 -7 -50 -10 -61 -7 -168 -47 -235 -88 -89 -54
-157 -128 -270 -295 -118 -176 -122 -183 -103 -181 38 3 228 -63 351 -124 l98
-47 39 53 c22 30 40 58 40 64 0 5 3 11 8 13 4 2 19 22 35 45 59 92 189 111
266 40 13 -12 73 -96 134 -187 61 -91 197 -293 302 -450 105 -157 301 -449
435 -648 l243 -364 19 24 c123 152 210 301 238 406 l11 43 -182 272 c-101 150
-317 472 -481 717 -164 245 -318 469 -343 497 -83 95 -218 176 -342 203 -53
12 -205 24 -213 17z"/>
<path d="M3525 4162 c-106 -5 -111 14 66 -250 l159 -237 66 -27 c260 -105 373
-338 304 -626 -36 -150 -102 -272 -246 -452 -46 -58 -120 -152 -165 -210 -44
-58 -86 -112 -92 -120 -7 -8 -64 -82 -127 -165 -63 -82 -140 -183 -172 -223
-32 -40 -58 -74 -58 -75 0 -1 132 -2 294 -2 l294 0 20 25 c25 32 127 164 200
260 31 41 62 82 69 90 266 324 356 478 428 726 31 109 35 139 40 274 7 215
-44 399 -159 573 -138 207 -377 362 -641 417 -66 13 -218 26 -280 22z"/>
<path d="M1292 4114 c-340 -61 -624 -272 -762 -566 -122 -261 -124 -545 -5
-843 48 -121 31 -132 215 141 l163 244 3 65 c11 293 259 506 589 506 199 -1
381 -65 590 -210 83 -57 110 -79 233 -196 40 -38 86 -77 100 -85 37 -20 168
-20 206 1 15 9 71 58 125 111 53 52 132 123 176 158 44 35 79 68 77 74 -4 14
-219 335 -240 358 -14 17 -18 15 -66 -20 -56 -41 -82 -61 -137 -109 -20 -18
-39 -33 -41 -33 -3 0 -15 9 -28 20 -13 11 -43 35 -67 53 -24 17 -56 41 -71 53
-48 37 -199 124 -276 159 -96 44 -232 89 -332 111 -103 22 -352 27 -452 8z"/>
<path d="M1415 3545 c-5 -2 -27 -6 -47 -9 -35 -6 -44 -18 -229 -294 -106 -158
-311 -464 -456 -680 -146 -217 -277 -421 -292 -455 -41 -91 -55 -160 -54 -267
0 -228 110 -430 302 -557 59 -39 187 -88 261 -98 35 -5 505 -9 618 -6 19 1 4
23 -100 153 -67 84 -127 158 -133 164 -5 7 -36 46 -69 88 -32 42 -62 76 -65
77 -3 0 -51 2 -106 3 -125 3 -157 18 -204 96 -24 40 -27 96 -7 144 8 18 88
143 178 277 399 592 839 1251 844 1264 8 21 -95 64 -212 89 -57 12 -207 20
-229 11z"/>
<path d="M1265 2358 c-16 -28 -34 -56 -40 -62 -18 -20 -195 -286 -195 -293 0
-6 86 -121 100 -133 3 -3 111 -138 240 -300 129 -162 237 -297 240 -300 3 -3
21 -25 40 -50 37 -48 41 -53 92 -116 18 -23 45 -56 60 -75 31 -40 293 -367
311 -389 12 -14 185 -233 217 -274 72 -94 139 -131 227 -129 40 1 112 29 144
55 15 13 75 87 114 142 11 16 25 33 30 40 6 6 31 38 55 71 25 33 47 62 50 65
8 7 335 433 343 446 4 7 -81 10 -286 10 l-292 0 -30 -36 c-17 -20 -55 -69 -84
-108 -29 -40 -54 -72 -56 -72 -2 0 -27 30 -56 68 -30 37 -56 69 -59 72 -3 3
-21 25 -40 50 -19 25 -41 52 -47 60 -14 17 -499 625 -541 679 -15 18 -69 86
-120 150 -52 64 -106 131 -120 150 -80 101 -239 298 -252 313 -14 15 -17 12
-45 -34z"/>
<path d="M4402 2308 c-33 -46 -70 -94 -82 -108 -12 -14 -43 -52 -68 -85 -25
-33 -49 -62 -52 -65 -3 -3 -13 -16 -22 -29 -16 -22 -15 -26 17 -87 46 -87 40
-149 -24 -218 -14 -15 -37 -33 -51 -39 -17 -7 -344 -11 -1047 -12 -562 0
-1024 -3 -1027 -5 -4 -4 333 -432 369 -469 11 -11 153 -13 842 -13 455 0 853
3 883 6 68 9 131 29 209 66 75 37 89 48 178 138 188 191 239 502 121 737 -29
57 -168 265 -178 265 -4 0 -35 -37 -68 -82z"/>
</g>
</svg>
